# xmcd
#
# Track frame offsets: 
#        150
#        14733
#        34247
#        50665
#        75190
#        93244
#        111941
#        129611
#        146398
#        161535
#
# Disc length: 2409 seconds
#
# Revision: 1
# Processed by: cddbd v1.5.2PL0 Copyright (c) Steve Scherf et al.
# Submitted via: ExactAudioCopy v0.99pb5
#
DISCID=7d09670a
DTITLE=Nicole Atkins - Neptune City
DYEAR=1900
DGENRE=Indie
TTITLE0=Maybe Tonight
TTITLE1=Together We're Both Alone
TTITLE2=The Way It Is
TTITLE3=Cool Enough
TTITLE4=War Torn
TTITLE5=Love Surreal
TTITLE6=Neptune City
TTITLE7=Brooklyn's On Fire
TTITLE8=Kill The Headlights
TTITLE9=Party's Over
EXTD=
EXTT0=
EXTT1=
EXTT2=
EXTT3=
EXTT4=
EXTT5=
EXTT6=
EXTT7=
EXTT8=
EXTT9=
PLAYORDER=
